ISO-10303-21;
HEADER;
FILE_DESCRIPTION(('FreeCAD Model'),'2;1');
FILE_NAME('Open CASCADE Shape Model','2026-08-18T11:40:45',('Author'),(
    ''),'Open CASCADE STEP processor 7.8','FreeCAD','Unknown');
FILE_SCHEMA(('AUTOMOTIVE_DESIGN { 1 0 10303 214 1 1 1 1 }'));
ENDSEC;
DATA;
#1 = APPLICATION_PROTOCOL_DEFINITION('international standard',
  'automotive_design',2000,#2);
#2 = APPLICATION_CONTEXT(
  'core data for automotive mechanical design processes');
#3 = SHAPE_DEFINITION_REPRESENTATION(#4,#10);
#4 = PRODUCT_DEFINITION_SHAPE('','',#5);
#5 = PRODUCT_DEFINITION('design','',#6,#9);
#6 = PRODUCT_DEFINITION_FORMATION('','',#7);
#7 = PRODUCT('Body','Body','',(#8));
#8 = PRODUCT_CONTEXT('',#2,'mechanical');
#9 = PRODUCT_DEFINITION_CONTEXT('part definition',#2,'design');
#10 = ADVANCED_BREP_SHAPE_REPRESENTATION('',(#11,#15),#1220);
#11 = AXIS2_PLACEMENT_3D('',#12,#13,#14);
#12 = CARTESIAN_POINT('',(0.,0.,0.));
#13 = DIRECTION('',(0.,0.,1.));
#14 = DIRECTION('',(1.,0.,-0.));
#15 = MANIFOLD_SOLID_BREP('',#16);
#16 = CLOSED_SHELL('',(#17,#153,#184,#208,#232,#256,#320,#344,#368,#392,
    #456,#480,#504,#528,#552,#576,#600,#617,#746,#763,#780,#797,#836,
    #848,#879,#903,#927,#951,#975,#992,#1023,#1047,#1071,#1095,#1119,
    #1136,#1161,#1186,#1203));
#17 = ADVANCED_FACE('',(#18),#148,.F.);
#18 = FACE_BOUND('',#19,.F.);
#19 = EDGE_LOOP('',(#20,#30,#38,#46,#54,#62,#70,#78,#86,#94,#102,#110,
    #118,#126,#134,#142));
#20 = ORIENTED_EDGE('',*,*,#21,.F.);
#21 = EDGE_CURVE('',#22,#24,#26,.T.);
#22 = VERTEX_POINT('',#23);
#23 = CARTESIAN_POINT('',(20.5,44.6,-5.7178826869E-14));
#24 = VERTEX_POINT('',#25);
#25 = CARTESIAN_POINT('',(20.5,47.3,-4.168458708565E-14));
#26 = LINE('',#27,#28);
#27 = CARTESIAN_POINT('',(20.5,44.6,-7.163393064962E-14));
#28 = VECTOR('',#29,1.);
#29 = DIRECTION('',(-2.22044604925E-16,1.,-1.555111512313E-15));
#30 = ORIENTED_EDGE('',*,*,#31,.F.);
#31 = EDGE_CURVE('',#32,#22,#34,.T.);
#32 = VERTEX_POINT('',#33);
#33 = CARTESIAN_POINT('',(-1.1E-14,44.6,-5.945478406948E-14));
#34 = LINE('',#35,#36);
#35 = CARTESIAN_POINT('',(-2.056318937966E-14,44.6,-6.935797344914E-14)
  );
#36 = VECTOR('',#37,1.);
#37 = DIRECTION('',(1.,-4.440892098501E-16,-1.110223024625E-16));
#38 = ORIENTED_EDGE('',*,*,#39,.F.);
#39 = EDGE_CURVE('',#40,#32,#42,.T.);
#40 = VERTEX_POINT('',#41);
#41 = CARTESIAN_POINT('',(0.,0.,0.));
#42 = LINE('',#43,#44);
#43 = CARTESIAN_POINT('',(0.,0.,0.));
#44 = VECTOR('',#45,1.);
#45 = DIRECTION('',(-2.22044604925E-16,1.,-5.551115123126E-16));
#46 = ORIENTED_EDGE('',*,*,#47,.T.);
#47 = EDGE_CURVE('',#40,#48,#50,.T.);
#48 = VERTEX_POINT('',#49);
#49 = CARTESIAN_POINT('',(100.,-6.62044604925E-14,3.910223024625E-14));
#50 = LINE('',#51,#52);
#51 = CARTESIAN_POINT('',(0.,0.,0.));
#52 = VECTOR('',#53,1.);
#53 = DIRECTION('',(1.,-8.840892098501E-16,1.689776975375E-16));
#54 = ORIENTED_EDGE('',*,*,#55,.T.);
#55 = EDGE_CURVE('',#48,#56,#58,.T.);
#56 = VERTEX_POINT('',#57);
#57 = CARTESIAN_POINT('',(100.,44.6,-4.835255382323E-14));
#58 = LINE('',#59,#60);
#59 = CARTESIAN_POINT('',(100.,-6.62044604925E-14,-4.263256414561E-14));
#60 = VECTOR('',#61,1.);
#61 = DIRECTION('',(-2.22044604925E-16,1.,-5.551115123126E-16));
#62 = ORIENTED_EDGE('',*,*,#63,.F.);
#63 = EDGE_CURVE('',#64,#56,#66,.T.);
#64 = VERTEX_POINT('',#65);
#65 = CARTESIAN_POINT('',(79.5,44.6,-5.062851102371E-14));
#66 = LINE('',#67,#68);
#67 = CARTESIAN_POINT('',(79.5,44.6,-7.818424649491E-14));
#68 = VECTOR('',#69,1.);
#69 = DIRECTION('',(1.,-4.440892098501E-16,-1.110223024625E-16));
#70 = ORIENTED_EDGE('',*,*,#71,.F.);
#71 = EDGE_CURVE('',#72,#64,#74,.T.);
#72 = VERTEX_POINT('',#73);
#73 = CARTESIAN_POINT('',(79.5,47.3,-1.290881397612E-14));
#74 = LINE('',#75,#76);
#75 = CARTESIAN_POINT('',(79.5,47.8,-8.316060333431E-14));
#76 = VECTOR('',#77,1.);
#77 = DIRECTION('',(2.22044604925E-16,-1.,1.555111512313E-15));
#78 = ORIENTED_EDGE('',*,*,#79,.F.);
#79 = EDGE_CURVE('',#80,#72,#82,.T.);
#80 = VERTEX_POINT('',#81);
#81 = CARTESIAN_POINT('',(79.,47.8,1.049168751049E-14));
#82 = LINE('',#83,#84);
#83 = CARTESIAN_POINT('',(71.325,55.475,1.315903494031E-14));
#84 = VECTOR('',#85,1.);
#85 = DIRECTION('',(0.707106781187,-0.707106781187,8.231353741911E-16));
#86 = ORIENTED_EDGE('',*,*,#87,.F.);
#87 = EDGE_CURVE('',#88,#80,#90,.T.);
#88 = VERTEX_POINT('',#89);
#89 = CARTESIAN_POINT('',(61.,47.8,-3.635168224844E-16));
#90 = LINE('',#91,#92);
#91 = CARTESIAN_POINT('',(-3.732115416477E-18,47.8,-4.776433028854E-14)
  );
#92 = VECTOR('',#93,1.);
#93 = DIRECTION('',(1.,-8.840892098501E-16,1.689776975375E-16));
#94 = ORIENTED_EDGE('',*,*,#95,.F.);
#95 = EDGE_CURVE('',#96,#88,#98,.T.);
#96 = VERTEX_POINT('',#97);
#97 = CARTESIAN_POINT('',(60.5,47.3,-2.169369498714E-14));
#98 = LINE('',#99,#100);
#99 = CARTESIAN_POINT('',(33.675,20.475,9.362846463356E-15));
#100 = VECTOR('',#101,1.);
#101 = DIRECTION('',(0.707106781187,0.707106781187,4.387216087853E-17));
#102 = ORIENTED_EDGE('',*,*,#103,.F.);
#103 = EDGE_CURVE('',#104,#96,#106,.T.);
#104 = VERTEX_POINT('',#105);
#105 = CARTESIAN_POINT('',(60.5,44.600000000013,-5.273793477052E-14));
#106 = LINE('',#107,#108);
#107 = CARTESIAN_POINT('',(60.5,44.600000000013,-7.607482274814E-14));
#108 = VECTOR('',#109,1.);
#109 = DIRECTION('',(-2.22044604925E-16,1.,-1.555111512313E-15));
#110 = ORIENTED_EDGE('',*,*,#111,.F.);
#111 = EDGE_CURVE('',#112,#104,#114,.T.);
#112 = VERTEX_POINT('',#113);
#113 = CARTESIAN_POINT('',(39.5,44.600000000013,-5.506940312223E-14));
#114 = LINE('',#115,#116);
#115 = CARTESIAN_POINT('',(39.5,44.600000000013,-7.374335439643E-14));
#116 = VECTOR('',#117,1.);
#117 = DIRECTION('',(1.,-4.440892098501E-16,-1.110223024625E-16));
#118 = ORIENTED_EDGE('',*,*,#119,.F.);
#119 = EDGE_CURVE('',#120,#112,#122,.T.);
#120 = VERTEX_POINT('',#121);
#121 = CARTESIAN_POINT('',(39.5,47.3,-3.288970607462E-14));
#122 = LINE('',#123,#124);
#123 = CARTESIAN_POINT('',(39.5,47.8,-7.871971123581E-14));
#124 = VECTOR('',#125,1.);
#125 = DIRECTION('',(2.22044604925E-16,-1.,1.555111512313E-15));
#126 = ORIENTED_EDGE('',*,*,#127,.F.);
#127 = EDGE_CURVE('',#128,#120,#130,.T.);
#128 = VERTEX_POINT('',#129);
#129 = CARTESIAN_POINT('',(39.,47.8,-1.363098878501E-14));
#130 = LINE('',#131,#132);
#131 = CARTESIAN_POINT('',(41.325,45.475,2.772507433075E-16));
#132 = VECTOR('',#133,1.);
#133 = DIRECTION('',(0.707106781187,-0.707106781187,8.231353741911E-16)
  );
#134 = ORIENTED_EDGE('',*,*,#135,.F.);
#135 = EDGE_CURVE('',#136,#128,#138,.T.);
#136 = VERTEX_POINT('',#137);
#137 = CARTESIAN_POINT('',(21.,47.8,-2.448619311799E-14));
#138 = LINE('',#139,#140);
#139 = CARTESIAN_POINT('',(-3.732115416477E-18,47.8,-4.776433028854E-14)
  );
#140 = VECTOR('',#141,1.);
#141 = DIRECTION('',(1.,-8.840892098501E-16,1.689776975375E-16));
#142 = ORIENTED_EDGE('',*,*,#143,.F.);
#143 = EDGE_CURVE('',#24,#136,#144,.T.);
#144 = LINE('',#145,#146);
#145 = CARTESIAN_POINT('',(3.675,30.475,-1.45393837829E-14));
#146 = VECTOR('',#147,1.);
#147 = DIRECTION('',(0.707106781187,0.707106781187,4.387216087853E-17));
#148 = PLANE('',#149);
#149 = AXIS2_PLACEMENT_3D('',#150,#151,#152);
#150 = CARTESIAN_POINT('',(0.,0.,0.));
#151 = DIRECTION('',(-8.351115123126E-16,3.289776975375E-16,1.));
#152 = DIRECTION('',(-2.044604925031E-18,1.,-9.951115123126E-16));
#153 = ADVANCED_FACE('',(#154),#179,.T.);
#154 = FACE_BOUND('',#155,.T.);
#155 = EDGE_LOOP('',(#156,#157,#165,#173));
#156 = ORIENTED_EDGE('',*,*,#21,.F.);
#157 = ORIENTED_EDGE('',*,*,#158,.T.);
#158 = EDGE_CURVE('',#22,#159,#161,.T.);
#159 = VERTEX_POINT('',#160);
#160 = CARTESIAN_POINT('',(20.5,44.6,10.2));
#161 = LINE('',#162,#163);
#162 = CARTESIAN_POINT('',(20.5,44.6,-5.373393064962E-14));
#163 = VECTOR('',#164,1.);
#164 = DIRECTION('',(-1.165111512313E-15,4.489776975375E-16,1.));
#165 = ORIENTED_EDGE('',*,*,#166,.T.);
#166 = EDGE_CURVE('',#159,#167,#169,.T.);
#167 = VERTEX_POINT('',#168);
#168 = CARTESIAN_POINT('',(20.5,47.3,10.2));
#169 = LINE('',#170,#171);
#170 = CARTESIAN_POINT('',(20.5,44.6,10.2));
#171 = VECTOR('',#172,1.);
#172 = DIRECTION('',(-2.22044604925E-16,1.,-1.555111512313E-15));
#173 = ORIENTED_EDGE('',*,*,#174,.F.);
#174 = EDGE_CURVE('',#24,#167,#175,.T.);
#175 = LINE('',#176,#177);
#176 = CARTESIAN_POINT('',(20.5,47.3,-4.248912982141E-14));
#177 = VECTOR('',#178,1.);
#178 = DIRECTION('',(-9.430669073875E-16,6.710223024625E-16,1.));
#179 = PLANE('',#180);
#180 = AXIS2_PLACEMENT_3D('',#181,#182,#183);
#181 = CARTESIAN_POINT('',(20.5,44.6,-5.373393064962E-14));
#182 = DIRECTION('',(-1.,6.640892098501E-16,-4.989776975375E-16));
#183 = DIRECTION('',(-2.04460492503E-18,1.,-1.335111512313E-15));
#184 = ADVANCED_FACE('',(#185),#203,.F.);
#185 = FACE_BOUND('',#186,.T.);
#186 = EDGE_LOOP('',(#187,#188,#189,#197));
#187 = ORIENTED_EDGE('',*,*,#143,.F.);
#188 = ORIENTED_EDGE('',*,*,#174,.T.);
#189 = ORIENTED_EDGE('',*,*,#190,.T.);
#190 = EDGE_CURVE('',#167,#191,#193,.T.);
#191 = VERTEX_POINT('',#192);
#192 = CARTESIAN_POINT('',(21.,47.8,10.2));
#193 = LINE('',#194,#195);
#194 = CARTESIAN_POINT('',(29.035200668897,55.835200668897,10.2));
#195 = VECTOR('',#196,1.);
#196 = DIRECTION('',(0.707106781187,0.707106781187,9.336963556159E-17));
#197 = ORIENTED_EDGE('',*,*,#198,.F.);
#198 = EDGE_CURVE('',#136,#191,#199,.T.);
#199 = LINE('',#200,#201);
#200 = CARTESIAN_POINT('',(21.,47.8,-4.235310751895E-14));
#201 = VECTOR('',#202,1.);
#202 = DIRECTION('',(-9.430669073875E-16,6.710223024625E-16,1.));
#203 = PLANE('',#204);
#204 = AXIS2_PLACEMENT_3D('',#205,#206,#207);
#205 = CARTESIAN_POINT('',(20.75,47.55,-4.242111867018E-14));
#206 = DIRECTION('',(0.707106781187,-0.707106781187,1.158704855116E-15)
  );
#207 = DIRECTION('',(9.553503629089E-16,-6.833057579839E-16,-1.));
#208 = ADVANCED_FACE('',(#209),#227,.T.);
#209 = FACE_BOUND('',#210,.T.);
#210 = EDGE_LOOP('',(#211,#219,#225,#226));
#211 = ORIENTED_EDGE('',*,*,#212,.T.);
#212 = EDGE_CURVE('',#32,#213,#215,.T.);
#213 = VERTEX_POINT('',#214);
#214 = CARTESIAN_POINT('',(-2.039728245535E-14,44.6,10.2));
#215 = LINE('',#216,#217);
#216 = CARTESIAN_POINT('',(-1.065318937966E-14,44.6,-5.941797344914E-14)
  );
#217 = VECTOR('',#218,1.);
#218 = DIRECTION('',(-1.165111512313E-15,4.489776975375E-16,1.));
#219 = ORIENTED_EDGE('',*,*,#220,.T.);
#220 = EDGE_CURVE('',#213,#159,#221,.T.);
#221 = LINE('',#222,#223);
#222 = CARTESIAN_POINT('',(-2.996047183501E-14,44.6,10.2));
#223 = VECTOR('',#224,1.);
#224 = DIRECTION('',(1.,-4.440892098501E-16,-1.110223024625E-16));
#225 = ORIENTED_EDGE('',*,*,#158,.F.);
#226 = ORIENTED_EDGE('',*,*,#31,.F.);
#227 = PLANE('',#228);
#228 = AXIS2_PLACEMENT_3D('',#229,#230,#231);
#229 = CARTESIAN_POINT('',(-1.065318937966E-14,44.6,-5.941797344914E-14)
  );
#230 = DIRECTION('',(2.17955395075E-16,1.,-1.115111512313E-15));
#231 = DIRECTION('',(1.,-8.840892098501E-16,2.789776975375E-16));
#232 = ADVANCED_FACE('',(#233),#251,.F.);
#233 = FACE_BOUND('',#234,.F.);
#234 = EDGE_LOOP('',(#235,#243,#244,#245));
#235 = ORIENTED_EDGE('',*,*,#236,.F.);
#236 = EDGE_CURVE('',#191,#237,#239,.T.);
#237 = VERTEX_POINT('',#238);
#238 = CARTESIAN_POINT('',(39.,47.8,10.2));
#239 = LINE('',#240,#241);
#240 = CARTESIAN_POINT('',(-1.0195869541E-14,47.8,10.2));
#241 = VECTOR('',#242,1.);
#242 = DIRECTION('',(1.,-8.840892098501E-16,1.689776975375E-16));
#243 = ORIENTED_EDGE('',*,*,#198,.F.);
#244 = ORIENTED_EDGE('',*,*,#135,.T.);
#245 = ORIENTED_EDGE('',*,*,#246,.T.);
#246 = EDGE_CURVE('',#128,#237,#247,.T.);
#247 = LINE('',#248,#249);
#248 = CARTESIAN_POINT('',(39.,47.8,-3.380675067955E-14));
#249 = VECTOR('',#250,1.);
#250 = DIRECTION('',(-9.430669073875E-16,6.710223024625E-16,1.));
#251 = PLANE('',#252);
#252 = AXIS2_PLACEMENT_3D('',#253,#254,#255);
#253 = CARTESIAN_POINT('',(-3.732115416477E-18,47.8,-4.776433028854E-14)
  );
#254 = DIRECTION('',(-2.17955395075E-16,-1.,7.751115123126E-16));
#255 = DIRECTION('',(-9.951115123126E-16,1.089776975375E-16,1.));
#256 = ADVANCED_FACE('',(#257),#315,.F.);
#257 = FACE_BOUND('',#258,.F.);
#258 = EDGE_LOOP('',(#259,#269,#275,#276,#277,#285,#293,#301,#309));
#259 = ORIENTED_EDGE('',*,*,#260,.T.);
#260 = EDGE_CURVE('',#261,#263,#265,.T.);
#261 = VERTEX_POINT('',#262);
#262 = CARTESIAN_POINT('',(-9.370282327836E-15,8.891259527052,10.2));
#263 = VERTEX_POINT('',#264);
#264 = CARTESIAN_POINT('',(-9.992007221626E-16,3.330669073875E-16,3.));
#265 = LINE('',#266,#267);
#266 = CARTESIAN_POINT('',(-3.376614365154E-14,47.8,41.707676786721));
#267 = VECTOR('',#268,1.);
#268 = DIRECTION('',(5.219040619856E-16,-0.777145961457,-0.62932039105)
  );
#269 = ORIENTED_EDGE('',*,*,#270,.T.);
#270 = EDGE_CURVE('',#263,#40,#271,.T.);
#271 = LINE('',#272,#273);
#272 = CARTESIAN_POINT('',(-1.665334536938E-15,-3.330669073875E-16,3.));
#273 = VECTOR('',#274,1.);
#274 = DIRECTION('',(5.551115123126E-16,1.110223024625E-16,-1.));
#275 = ORIENTED_EDGE('',*,*,#39,.T.);
#276 = ORIENTED_EDGE('',*,*,#212,.T.);
#277 = ORIENTED_EDGE('',*,*,#278,.T.);
#278 = EDGE_CURVE('',#213,#279,#281,.T.);
#279 = VERTEX_POINT('',#280);
#280 = CARTESIAN_POINT('',(-3.397282455353E-15,57.8,10.2));
#281 = LINE('',#282,#283);
#282 = CARTESIAN_POINT('',(-1.3585869541E-14,47.8,10.2));
#283 = VECTOR('',#284,1.);
#284 = DIRECTION('',(-2.044604925031E-18,1.,-1.335111512313E-15));
#285 = ORIENTED_EDGE('',*,*,#286,.T.);
#286 = EDGE_CURVE('',#279,#287,#289,.T.);
#287 = VERTEX_POINT('',#288);
#288 = CARTESIAN_POINT('',(-6.727951529228E-15,57.8,20.2));
#289 = LINE('',#290,#291);
#290 = CARTESIAN_POINT('',(-1.849631559026E-14,57.8,10.2));
#291 = VECTOR('',#292,1.);
#292 = DIRECTION('',(-5.551115123126E-16,-1.110223024625E-16,1.));
#293 = ORIENTED_EDGE('',*,*,#294,.T.);
#294 = EDGE_CURVE('',#287,#295,#297,.T.);
#295 = VERTEX_POINT('',#296);
#296 = CARTESIAN_POINT('',(-2.242650509743E-15,38.8,20.2));
#297 = LINE('',#298,#299);
#298 = CARTESIAN_POINT('',(5.278831993899E-15,40.456256543315,20.2));
#299 = VECTOR('',#300,1.);
#300 = DIRECTION('',(-2.22044604925E-16,-1.,3.330669073875E-16));
#301 = ORIENTED_EDGE('',*,*,#302,.T.);
#302 = EDGE_CURVE('',#295,#303,#305,.T.);
#303 = VERTEX_POINT('',#304);
#304 = CARTESIAN_POINT('',(-1.132427485118E-15,38.8,10.2));
#305 = LINE('',#306,#307);
#306 = CARTESIAN_POINT('',(6.217122714138E-15,38.8,17.436115437299));
#307 = VECTOR('',#308,1.);
#308 = DIRECTION('',(1.110223024625E-16,-1.110223024625E-16,-1.));
#309 = ORIENTED_EDGE('',*,*,#310,.T.);
#310 = EDGE_CURVE('',#303,#261,#311,.T.);
#311 = LINE('',#312,#313);
#312 = CARTESIAN_POINT('',(6.389055018524E-15,35.956256543315,10.2));
#313 = VECTOR('',#314,1.);
#314 = DIRECTION('',(-2.22044604925E-16,-1.,3.330669073875E-16));
#315 = PLANE('',#316);
#316 = AXIS2_PLACEMENT_3D('',#317,#318,#319);
#317 = CARTESIAN_POINT('',(-1.140717915619E-14,33.11251308663,
    14.672230874598));
#318 = DIRECTION('',(1.,-4.440892098501E-16,-1.110223024625E-16));
#319 = DIRECTION('',(-5.551115123126E-16,-1.110223024625E-16,1.));
#320 = ADVANCED_FACE('',(#321),#339,.F.);
#321 = FACE_BOUND('',#322,.T.);
#322 = EDGE_LOOP('',(#323,#324,#325,#333));
#323 = ORIENTED_EDGE('',*,*,#127,.F.);
#324 = ORIENTED_EDGE('',*,*,#246,.T.);
#325 = ORIENTED_EDGE('',*,*,#326,.T.);
#326 = EDGE_CURVE('',#237,#327,#329,.T.);
#327 = VERTEX_POINT('',#328);
#328 = CARTESIAN_POINT('',(39.5,47.3,10.2));
#329 = LINE('',#330,#331);
#330 = CARTESIAN_POINT('',(40.964799331103,45.835200668897,10.2));
#331 = VECTOR('',#332,1.);
#332 = DIRECTION('',(0.707106781187,-0.707106781187,9.292013913691E-16)
  );
#333 = ORIENTED_EDGE('',*,*,#334,.F.);
#334 = EDGE_CURVE('',#120,#327,#335,.T.);
#335 = LINE('',#336,#337);
#336 = CARTESIAN_POINT('',(39.5,47.3,-3.299970607462E-14));
#337 = VECTOR('',#338,1.);
#338 = DIRECTION('',(-9.430669073875E-16,6.710223024625E-16,1.));
#339 = PLANE('',#340);
#340 = AXIS2_PLACEMENT_3D('',#341,#342,#343);
#341 = CARTESIAN_POINT('',(39.25,47.55,-3.340322837709E-14));
#342 = DIRECTION('',(-0.707106781187,-0.707106781187,0.));
#343 = DIRECTION('',(8.07044604925E-16,-8.07044604925E-16,-1.));
#344 = ADVANCED_FACE('',(#345),#363,.F.);
#345 = FACE_BOUND('',#346,.F.);
#346 = EDGE_LOOP('',(#347,#355,#361,#362));
#347 = ORIENTED_EDGE('',*,*,#348,.T.);
#348 = EDGE_CURVE('',#263,#349,#351,.T.);
#349 = VERTEX_POINT('',#350);
#350 = CARTESIAN_POINT('',(100.,-6.587139358512E-14,3.));
#351 = LINE('',#352,#353);
#352 = CARTESIAN_POINT('',(-2.995334536938E-15,3.369330926125E-16,3.));
#353 = VECTOR('',#354,1.);
#354 = DIRECTION('',(1.,-8.840892098501E-16,1.689776975375E-16));
#355 = ORIENTED_EDGE('',*,*,#356,.T.);
#356 = EDGE_CURVE('',#349,#48,#357,.T.);
#357 = LINE('',#358,#359);
#358 = CARTESIAN_POINT('',(100.,-6.653752739989E-14,3.));
#359 = VECTOR('',#360,1.);
#360 = DIRECTION('',(5.551115123126E-16,1.110223024625E-16,-1.));
#361 = ORIENTED_EDGE('',*,*,#47,.F.);
#362 = ORIENTED_EDGE('',*,*,#270,.F.);
#363 = PLANE('',#364);
#364 = AXIS2_PLACEMENT_3D('',#365,#366,#367);
#365 = CARTESIAN_POINT('',(-2.995334536938E-15,3.369330926125E-16,3.));
#366 = DIRECTION('',(2.17955395075E-16,1.,-7.751115123126E-16));
#367 = DIRECTION('',(9.951115123126E-16,-1.089776975375E-16,-1.));
#368 = ADVANCED_FACE('',(#369),#387,.T.);
#369 = FACE_BOUND('',#370,.T.);
#370 = EDGE_LOOP('',(#371,#372,#373,#381));
#371 = ORIENTED_EDGE('',*,*,#119,.F.);
#372 = ORIENTED_EDGE('',*,*,#334,.T.);
#373 = ORIENTED_EDGE('',*,*,#374,.T.);
#374 = EDGE_CURVE('',#327,#375,#377,.T.);
#375 = VERTEX_POINT('',#376);
#376 = CARTESIAN_POINT('',(39.5,44.600000000013,10.2));
#377 = LINE('',#378,#379);
#378 = CARTESIAN_POINT('',(39.5,47.8,10.2));
#379 = VECTOR('',#380,1.);
#380 = DIRECTION('',(2.22044604925E-16,-1.,1.555111512313E-15));
#381 = ORIENTED_EDGE('',*,*,#382,.F.);
#382 = EDGE_CURVE('',#112,#375,#383,.T.);
#383 = LINE('',#384,#385);
#384 = CARTESIAN_POINT('',(39.5,44.600000000013,-4.845335439642E-14));
#385 = VECTOR('',#386,1.);
#386 = DIRECTION('',(-1.165111512313E-15,4.489776975375E-16,1.));
#387 = PLANE('',#388);
#388 = AXIS2_PLACEMENT_3D('',#389,#390,#391);
#389 = CARTESIAN_POINT('',(39.5,47.8,-5.271971123581E-14));
#390 = DIRECTION('',(1.,-6.640892098501E-16,4.989776975375E-16));
#391 = DIRECTION('',(2.04460492503E-18,-1.,1.335111512313E-15));
#392 = ADVANCED_FACE('',(#393),#451,.T.);
#393 = FACE_BOUND('',#394,.T.);
#394 = EDGE_LOOP('',(#395,#403,#404,#405,#413,#421,#429,#437,#445));
#395 = ORIENTED_EDGE('',*,*,#396,.T.);
#396 = EDGE_CURVE('',#397,#349,#399,.T.);
#397 = VERTEX_POINT('',#398);
#398 = CARTESIAN_POINT('',(100.,8.891259527052,10.2));
#399 = LINE('',#400,#401);
#400 = CARTESIAN_POINT('',(100.,47.8,41.707676786721));
#401 = VECTOR('',#402,1.);
#402 = DIRECTION('',(5.219040619856E-16,-0.777145961457,-0.62932039105)
  );
#403 = ORIENTED_EDGE('',*,*,#356,.T.);
#404 = ORIENTED_EDGE('',*,*,#55,.T.);
#405 = ORIENTED_EDGE('',*,*,#406,.T.);
#406 = EDGE_CURVE('',#56,#407,#409,.T.);
#407 = VERTEX_POINT('',#408);
#408 = CARTESIAN_POINT('',(100.,44.6,10.2));
#409 = LINE('',#410,#411);
#410 = CARTESIAN_POINT('',(100.,44.6,-3.166020369539E-14));
#411 = VECTOR('',#412,1.);
#412 = DIRECTION('',(-1.165111512313E-15,4.489776975375E-16,1.));
#413 = ORIENTED_EDGE('',*,*,#414,.T.);
#414 = EDGE_CURVE('',#407,#415,#417,.T.);
#415 = VERTEX_POINT('',#416);
#416 = CARTESIAN_POINT('',(100.,57.8,10.2));
#417 = LINE('',#418,#419);
#418 = CARTESIAN_POINT('',(100.,44.6,10.2));
#419 = VECTOR('',#420,1.);
#420 = DIRECTION('',(-2.044604925031E-18,1.,-1.335111512313E-15));
#421 = ORIENTED_EDGE('',*,*,#422,.T.);
#422 = EDGE_CURVE('',#415,#423,#425,.T.);
#423 = VERTEX_POINT('',#424);
#424 = CARTESIAN_POINT('',(100.,57.8,20.2));
#425 = LINE('',#426,#427);
#426 = CARTESIAN_POINT('',(100.,57.8,10.2));
#427 = VECTOR('',#428,1.);
#428 = DIRECTION('',(-5.551115123126E-16,-1.110223024625E-16,1.));
#429 = ORIENTED_EDGE('',*,*,#430,.T.);
#430 = EDGE_CURVE('',#423,#431,#433,.T.);
#431 = VERTEX_POINT('',#432);
#432 = CARTESIAN_POINT('',(100.,38.8,20.2));
#433 = LINE('',#434,#435);
#434 = CARTESIAN_POINT('',(100.,57.8,20.2));
#435 = VECTOR('',#436,1.);
#436 = DIRECTION('',(-2.465190328816E-32,-1.,3.330669073875E-16));
#437 = ORIENTED_EDGE('',*,*,#438,.T.);
#438 = EDGE_CURVE('',#431,#439,#441,.T.);
#439 = VERTEX_POINT('',#440);
#440 = CARTESIAN_POINT('',(100.,38.8,10.2));
#441 = LINE('',#442,#443);
#442 = CARTESIAN_POINT('',(100.,38.8,20.2));
#443 = VECTOR('',#444,1.);
#444 = DIRECTION('',(5.551115123126E-16,1.110223024625E-16,-1.));
#445 = ORIENTED_EDGE('',*,*,#446,.T.);
#446 = EDGE_CURVE('',#439,#397,#447,.T.);
#447 = LINE('',#448,#449);
#448 = CARTESIAN_POINT('',(100.,38.8,10.2));
#449 = VECTOR('',#450,1.);
#450 = DIRECTION('',(2.22044604925E-16,-1.,5.551115123126E-16));
#451 = PLANE('',#452);
#452 = AXIS2_PLACEMENT_3D('',#453,#454,#455);
#453 = CARTESIAN_POINT('',(100.,33.11251308663,14.672230874598));
#454 = DIRECTION('',(1.,-4.440892098501E-16,-1.110223024625E-16));
#455 = DIRECTION('',(-5.551115123126E-16,-1.110223024625E-16,1.));
#456 = ADVANCED_FACE('',(#457),#475,.T.);
#457 = FACE_BOUND('',#458,.T.);
#458 = EDGE_LOOP('',(#459,#460,#468,#474));
#459 = ORIENTED_EDGE('',*,*,#382,.T.);
#460 = ORIENTED_EDGE('',*,*,#461,.T.);
#461 = EDGE_CURVE('',#375,#462,#464,.T.);
#462 = VERTEX_POINT('',#463);
#463 = CARTESIAN_POINT('',(60.5,44.600000000013,10.2));
#464 = LINE('',#465,#466);
#465 = CARTESIAN_POINT('',(39.5,44.600000000013,10.2));
#466 = VECTOR('',#467,1.);
#467 = DIRECTION('',(1.,-4.440892098501E-16,-1.110223024625E-16));
#468 = ORIENTED_EDGE('',*,*,#469,.F.);
#469 = EDGE_CURVE('',#104,#462,#470,.T.);
#470 = LINE('',#471,#472);
#471 = CARTESIAN_POINT('',(60.5,44.600000000013,-4.262482274813E-14));
#472 = VECTOR('',#473,1.);
#473 = DIRECTION('',(-1.165111512313E-15,4.489776975375E-16,1.));
#474 = ORIENTED_EDGE('',*,*,#111,.F.);
#475 = PLANE('',#476);
#476 = AXIS2_PLACEMENT_3D('',#477,#478,#479);
#477 = CARTESIAN_POINT('',(39.5,44.600000000013,-4.845335439642E-14));
#478 = DIRECTION('',(2.17955395075E-16,1.,-1.115111512313E-15));
#479 = DIRECTION('',(1.,-8.840892098501E-16,2.789776975375E-16));
#480 = ADVANCED_FACE('',(#481),#499,.T.);
#481 = FACE_BOUND('',#482,.T.);
#482 = EDGE_LOOP('',(#483,#491,#497,#498));
#483 = ORIENTED_EDGE('',*,*,#484,.T.);
#484 = EDGE_CURVE('',#64,#485,#487,.T.);
#485 = VERTEX_POINT('',#486);
#486 = CARTESIAN_POINT('',(79.5,44.6,10.2));
#487 = LINE('',#488,#489);
#488 = CARTESIAN_POINT('',(79.5,44.6,-3.735424649491E-14));
#489 = VECTOR('',#490,1.);
#490 = DIRECTION('',(-1.165111512313E-15,4.489776975375E-16,1.));
#491 = ORIENTED_EDGE('',*,*,#492,.T.);
#492 = EDGE_CURVE('',#485,#407,#493,.T.);
#493 = LINE('',#494,#495);
#494 = CARTESIAN_POINT('',(79.5,44.6,10.2));
#495 = VECTOR('',#496,1.);
#496 = DIRECTION('',(1.,-4.440892098501E-16,-1.110223024625E-16));
#497 = ORIENTED_EDGE('',*,*,#406,.F.);
#498 = ORIENTED_EDGE('',*,*,#63,.F.);
#499 = PLANE('',#500);
#500 = AXIS2_PLACEMENT_3D('',#501,#502,#503);
#501 = CARTESIAN_POINT('',(79.5,44.6,-3.735424649491E-14));
#502 = DIRECTION('',(2.17955395075E-16,1.,-1.115111512313E-15));
#503 = DIRECTION('',(1.,-8.840892098501E-16,2.789776975375E-16));
#504 = ADVANCED_FACE('',(#505),#523,.T.);
#505 = FACE_BOUND('',#506,.T.);
#506 = EDGE_LOOP('',(#507,#508,#509,#517));
#507 = ORIENTED_EDGE('',*,*,#103,.F.);
#508 = ORIENTED_EDGE('',*,*,#469,.T.);
#509 = ORIENTED_EDGE('',*,*,#510,.T.);
#510 = EDGE_CURVE('',#462,#511,#513,.T.);
#511 = VERTEX_POINT('',#512);
#512 = CARTESIAN_POINT('',(60.5,47.3,10.2));
#513 = LINE('',#514,#515);
#514 = CARTESIAN_POINT('',(60.5,44.600000000013,10.2));
#515 = VECTOR('',#516,1.);
#516 = DIRECTION('',(-2.22044604925E-16,1.,-1.555111512313E-15));
#517 = ORIENTED_EDGE('',*,*,#518,.F.);
#518 = EDGE_CURVE('',#96,#511,#519,.T.);
#519 = LINE('',#520,#521);
#520 = CARTESIAN_POINT('',(60.5,47.3,-2.250823772291E-14));
#521 = VECTOR('',#522,1.);
#522 = DIRECTION('',(-9.430669073875E-16,6.710223024625E-16,1.));
#523 = PLANE('',#524);
#524 = AXIS2_PLACEMENT_3D('',#525,#526,#527);
#525 = CARTESIAN_POINT('',(60.5,44.600000000013,-4.262482274813E-14));
#526 = DIRECTION('',(-1.,6.640892098501E-16,-4.989776975375E-16));
#527 = DIRECTION('',(-2.04460492503E-18,1.,-1.335111512313E-15));
#528 = ADVANCED_FACE('',(#529),#547,.T.);
#529 = FACE_BOUND('',#530,.T.);
#530 = EDGE_LOOP('',(#531,#532,#540,#546));
#531 = ORIENTED_EDGE('',*,*,#71,.F.);
#532 = ORIENTED_EDGE('',*,*,#533,.T.);
#533 = EDGE_CURVE('',#72,#534,#536,.T.);
#534 = VERTEX_POINT('',#535);
#535 = CARTESIAN_POINT('',(79.5,47.3,10.2));
#536 = LINE('',#537,#538);
#537 = CARTESIAN_POINT('',(79.5,47.3,-1.301881397612E-14));
#538 = VECTOR('',#539,1.);
#539 = DIRECTION('',(-9.430669073875E-16,6.710223024625E-16,1.));
#540 = ORIENTED_EDGE('',*,*,#541,.T.);
#541 = EDGE_CURVE('',#534,#485,#542,.T.);
#542 = LINE('',#543,#544);
#543 = CARTESIAN_POINT('',(79.5,47.8,10.2));
#544 = VECTOR('',#545,1.);
#545 = DIRECTION('',(2.22044604925E-16,-1.,1.555111512313E-15));
#546 = ORIENTED_EDGE('',*,*,#484,.F.);
#547 = PLANE('',#548);
#548 = AXIS2_PLACEMENT_3D('',#549,#550,#551);
#549 = CARTESIAN_POINT('',(79.5,47.8,-4.162060333431E-14));
#550 = DIRECTION('',(1.,-6.640892098501E-16,4.989776975375E-16));
#551 = DIRECTION('',(2.04460492503E-18,-1.,1.335111512313E-15));
#552 = ADVANCED_FACE('',(#553),#571,.F.);
#553 = FACE_BOUND('',#554,.T.);
#554 = EDGE_LOOP('',(#555,#556,#557,#565));
#555 = ORIENTED_EDGE('',*,*,#95,.F.);
#556 = ORIENTED_EDGE('',*,*,#518,.T.);
#557 = ORIENTED_EDGE('',*,*,#558,.T.);
#558 = EDGE_CURVE('',#511,#559,#561,.T.);
#559 = VERTEX_POINT('',#560);
#560 = CARTESIAN_POINT('',(61.,47.8,10.2));
#561 = LINE('',#562,#563);
#562 = CARTESIAN_POINT('',(59.035200668897,45.835200668897,10.2));
#563 = VECTOR('',#564,1.);
#564 = DIRECTION('',(0.707106781187,0.707106781187,9.336963556159E-17));
#565 = ORIENTED_EDGE('',*,*,#566,.F.);
#566 = EDGE_CURVE('',#88,#559,#567,.T.);
#567 = LINE('',#568,#569);
#568 = CARTESIAN_POINT('',(61.,47.8,-2.237221542045E-14));
#569 = VECTOR('',#570,1.);
#570 = DIRECTION('',(-9.430669073875E-16,6.710223024625E-16,1.));
#571 = PLANE('',#572);
#572 = AXIS2_PLACEMENT_3D('',#573,#574,#575);
#573 = CARTESIAN_POINT('',(60.75,47.55,-2.244022657168E-14));
#574 = DIRECTION('',(0.707106781187,-0.707106781187,1.158704855116E-15)
  );
#575 = DIRECTION('',(9.553503629089E-16,-6.833057579839E-16,-1.));
#576 = ADVANCED_FACE('',(#577),#595,.F.);
#577 = FACE_BOUND('',#578,.T.);
#578 = EDGE_LOOP('',(#579,#580,#588,#594));
#579 = ORIENTED_EDGE('',*,*,#79,.F.);
#580 = ORIENTED_EDGE('',*,*,#581,.T.);
#581 = EDGE_CURVE('',#80,#582,#584,.T.);
#582 = VERTEX_POINT('',#583);
#583 = CARTESIAN_POINT('',(79.,47.8,10.2));
#584 = LINE('',#585,#586);
#585 = CARTESIAN_POINT('',(79.,47.8,-1.382585858105E-14));
#586 = VECTOR('',#587,1.);
#587 = DIRECTION('',(-9.430669073875E-16,6.710223024625E-16,1.));
#588 = ORIENTED_EDGE('',*,*,#589,.T.);
#589 = EDGE_CURVE('',#582,#534,#590,.T.);
#590 = LINE('',#591,#592);
#591 = CARTESIAN_POINT('',(70.964799331103,55.835200668897,10.2));
#592 = VECTOR('',#593,1.);
#593 = DIRECTION('',(0.707106781187,-0.707106781187,9.292013913691E-16)
  );
#594 = ORIENTED_EDGE('',*,*,#533,.F.);
#595 = PLANE('',#596);
#596 = AXIS2_PLACEMENT_3D('',#597,#598,#599);
#597 = CARTESIAN_POINT('',(79.25,47.55,-1.342233627859E-14));
#598 = DIRECTION('',(-0.707106781187,-0.707106781187,5.078040241325E-16)
  );
#599 = DIRECTION('',(4.479729359471E-16,-1.166116273903E-15,-1.));
#600 = ADVANCED_FACE('',(#601),#612,.F.);
#601 = FACE_BOUND('',#602,.F.);
#602 = EDGE_LOOP('',(#603,#609,#610,#611));
#603 = ORIENTED_EDGE('',*,*,#604,.F.);
#604 = EDGE_CURVE('',#559,#582,#605,.T.);
#605 = LINE('',#606,#607);
#606 = CARTESIAN_POINT('',(-1.0195869541E-14,47.8,10.2));
#607 = VECTOR('',#608,1.);
#608 = DIRECTION('',(1.,-8.840892098501E-16,1.689776975375E-16));
#609 = ORIENTED_EDGE('',*,*,#566,.F.);
#610 = ORIENTED_EDGE('',*,*,#87,.T.);
#611 = ORIENTED_EDGE('',*,*,#581,.T.);
#612 = PLANE('',#613);
#613 = AXIS2_PLACEMENT_3D('',#614,#615,#616);
#614 = CARTESIAN_POINT('',(-3.732115416477E-18,47.8,-4.776433028854E-14)
  );
#615 = DIRECTION('',(-2.17955395075E-16,-1.,7.751115123126E-16));
#616 = DIRECTION('',(-9.951115123126E-16,1.089776975375E-16,1.));
#617 = ADVANCED_FACE('',(#618,#641,#691),#741,.T.);
#618 = FACE_BOUND('',#619,.T.);
#619 = EDGE_LOOP('',(#620,#621,#622,#623,#624,#625,#631,#632,#633,#634,
    #635,#636,#637,#638,#639,#640));
#620 = ORIENTED_EDGE('',*,*,#236,.F.);
#621 = ORIENTED_EDGE('',*,*,#190,.F.);
#622 = ORIENTED_EDGE('',*,*,#166,.F.);
#623 = ORIENTED_EDGE('',*,*,#220,.F.);
#624 = ORIENTED_EDGE('',*,*,#278,.T.);
#625 = ORIENTED_EDGE('',*,*,#626,.T.);
#626 = EDGE_CURVE('',#279,#415,#627,.T.);
#627 = LINE('',#628,#629);
#628 = CARTESIAN_POINT('',(-1.019631559026E-14,57.8,10.2));
#629 = VECTOR('',#630,1.);
#630 = DIRECTION('',(1.,-8.840892098501E-16,1.689776975375E-16));
#631 = ORIENTED_EDGE('',*,*,#414,.F.);
#632 = ORIENTED_EDGE('',*,*,#492,.F.);
#633 = ORIENTED_EDGE('',*,*,#541,.F.);
#634 = ORIENTED_EDGE('',*,*,#589,.F.);
#635 = ORIENTED_EDGE('',*,*,#604,.F.);
#636 = ORIENTED_EDGE('',*,*,#558,.F.);
#637 = ORIENTED_EDGE('',*,*,#510,.F.);
#638 = ORIENTED_EDGE('',*,*,#461,.F.);
#639 = ORIENTED_EDGE('',*,*,#374,.F.);
#640 = ORIENTED_EDGE('',*,*,#326,.F.);
#641 = FACE_BOUND('',#642,.T.);
#642 = EDGE_LOOP('',(#643,#653,#661,#669,#677,#685));
#643 = ORIENTED_EDGE('',*,*,#644,.F.);
#644 = EDGE_CURVE('',#645,#647,#649,.T.);
#645 = VERTEX_POINT('',#646);
#646 = CARTESIAN_POINT('',(74.272391992003,53.2,10.2));
#647 = VERTEX_POINT('',#648);
#648 = CARTESIAN_POINT('',(72.136195996005,49.499999999996,10.2));
#649 = LINE('',#650,#651);
#650 = CARTESIAN_POINT('',(74.272391992003,53.2,10.2));
#651 = VECTOR('',#652,1.);
#652 = DIRECTION('',(-0.499999999999,-0.866025403785,9.022772266135E-16)
  );
#653 = ORIENTED_EDGE('',*,*,#654,.F.);
#654 = EDGE_CURVE('',#655,#645,#657,.T.);
#655 = VERTEX_POINT('',#656);
#656 = CARTESIAN_POINT('',(72.136195996001,56.9,10.2));
#657 = LINE('',#658,#659);
#658 = CARTESIAN_POINT('',(72.136195996001,56.9,10.2));
#659 = VECTOR('',#660,1.);
#660 = DIRECTION('',(0.5,-0.866025403784,1.791254924149E-15));
#661 = ORIENTED_EDGE('',*,*,#662,.F.);
#662 = EDGE_CURVE('',#663,#655,#665,.T.);
#663 = VERTEX_POINT('',#664);
#664 = CARTESIAN_POINT('',(67.863804003997,56.9,10.2));
#665 = LINE('',#666,#667);
#666 = CARTESIAN_POINT('',(67.863804003997,56.9,10.2));
#667 = VECTOR('',#668,1.);
#668 = DIRECTION('',(1.,8.271591079015E-14,8.889776975374E-16));
#669 = ORIENTED_EDGE('',*,*,#670,.F.);
#670 = EDGE_CURVE('',#671,#663,#673,.T.);
#671 = VERTEX_POINT('',#672);
#672 = CARTESIAN_POINT('',(65.727608007996,53.199999999999,10.2));
#673 = LINE('',#674,#675);
#674 = CARTESIAN_POINT('',(65.727608007996,53.199999999999,10.2));
#675 = VECTOR('',#676,1.);
#676 = DIRECTION('',(0.5,0.866025403785,-9.022772266121E-16));
#677 = ORIENTED_EDGE('',*,*,#678,.F.);
#678 = EDGE_CURVE('',#679,#671,#681,.T.);
#679 = VERTEX_POINT('',#680);
#680 = CARTESIAN_POINT('',(67.863804003999,49.499999999999,10.2));
#681 = LINE('',#682,#683);
#682 = CARTESIAN_POINT('',(67.863804003999,49.499999999999,10.2));
#683 = VECTOR('',#684,1.);
#684 = DIRECTION('',(-0.5,0.866025403784,-1.791254924149E-15));
#685 = ORIENTED_EDGE('',*,*,#686,.F.);
#686 = EDGE_CURVE('',#647,#679,#687,.T.);
#687 = LINE('',#688,#689);
#688 = CARTESIAN_POINT('',(72.136195996005,49.499999999996,10.2));
#689 = VECTOR('',#690,1.);
#690 = DIRECTION('',(-1.,6.307640892099E-13,-8.889776975385E-16));
#691 = FACE_BOUND('',#692,.T.);
#692 = EDGE_LOOP('',(#693,#703,#711,#719,#727,#735));
#693 = ORIENTED_EDGE('',*,*,#694,.F.);
#694 = EDGE_CURVE('',#695,#697,#699,.T.);
#695 = VERTEX_POINT('',#696);
#696 = CARTESIAN_POINT('',(34.272391992003,53.2,10.2));
#697 = VERTEX_POINT('',#698);
#698 = CARTESIAN_POINT('',(32.136195996005,49.499999999996,10.2));
#699 = LINE('',#700,#701);
#700 = CARTESIAN_POINT('',(34.272391992003,53.2,10.2));
#701 = VECTOR('',#702,1.);
#702 = DIRECTION('',(-0.499999999999,-0.866025403785,9.022772266135E-16)
  );
#703 = ORIENTED_EDGE('',*,*,#704,.F.);
#704 = EDGE_CURVE('',#705,#695,#707,.T.);
#705 = VERTEX_POINT('',#706);
#706 = CARTESIAN_POINT('',(32.136195996001,56.9,10.2));
#707 = LINE('',#708,#709);
#708 = CARTESIAN_POINT('',(32.136195996001,56.9,10.2));
#709 = VECTOR('',#710,1.);
#710 = DIRECTION('',(0.5,-0.866025403784,1.791254924149E-15));
#711 = ORIENTED_EDGE('',*,*,#712,.F.);
#712 = EDGE_CURVE('',#713,#705,#715,.T.);
#713 = VERTEX_POINT('',#714);
#714 = CARTESIAN_POINT('',(27.863804003997,56.9,10.2));
#715 = LINE('',#716,#717);
#716 = CARTESIAN_POINT('',(27.863804003997,56.9,10.2));
#717 = VECTOR('',#718,1.);
#718 = DIRECTION('',(1.,8.271591079015E-14,8.889776975374E-16));
#719 = ORIENTED_EDGE('',*,*,#720,.F.);
#720 = EDGE_CURVE('',#721,#713,#723,.T.);
#721 = VERTEX_POINT('',#722);
#722 = CARTESIAN_POINT('',(25.727608007996,53.199999999999,10.2));
#723 = LINE('',#724,#725);
#724 = CARTESIAN_POINT('',(25.727608007996,53.199999999999,10.2));
#725 = VECTOR('',#726,1.);
#726 = DIRECTION('',(0.5,0.866025403785,-9.022772266121E-16));
#727 = ORIENTED_EDGE('',*,*,#728,.F.);
#728 = EDGE_CURVE('',#729,#721,#731,.T.);
#729 = VERTEX_POINT('',#730);
#730 = CARTESIAN_POINT('',(27.863804003999,49.499999999999,10.2));
#731 = LINE('',#732,#733);
#732 = CARTESIAN_POINT('',(27.863804003999,49.499999999999,10.2));
#733 = VECTOR('',#734,1.);
#734 = DIRECTION('',(-0.5,0.866025403784,-1.791254924149E-15));
#735 = ORIENTED_EDGE('',*,*,#736,.F.);
#736 = EDGE_CURVE('',#697,#729,#737,.T.);
#737 = LINE('',#738,#739);
#738 = CARTESIAN_POINT('',(32.136195996005,49.499999999996,10.2));
#739 = VECTOR('',#740,1.);
#740 = DIRECTION('',(-1.,6.307640892099E-13,-8.889776975385E-16));
#741 = PLANE('',#742);
#742 = AXIS2_PLACEMENT_3D('',#743,#744,#745);
#743 = CARTESIAN_POINT('',(50.,51.440802675587,10.2));
#744 = DIRECTION('',(9.451115123126E-16,-3.689776975375E-16,-1.));
#745 = DIRECTION('',(2.22044604925E-16,-1.,1.035111512313E-15));
#746 = ADVANCED_FACE('',(#747),#758,.F.);
#747 = FACE_BOUND('',#748,.F.);
#748 = EDGE_LOOP('',(#749,#750,#756,#757));
#749 = ORIENTED_EDGE('',*,*,#260,.F.);
#750 = ORIENTED_EDGE('',*,*,#751,.F.);
#751 = EDGE_CURVE('',#397,#261,#752,.T.);
#752 = LINE('',#753,#754);
#753 = CARTESIAN_POINT('',(100.,8.891259527052,10.2));
#754 = VECTOR('',#755,1.);
#755 = DIRECTION('',(-1.,2.22044604925E-16,-1.110223024625E-16));
#756 = ORIENTED_EDGE('',*,*,#396,.T.);
#757 = ORIENTED_EDGE('',*,*,#348,.F.);
#758 = PLANE('',#759);
#759 = AXIS2_PLACEMENT_3D('',#760,#761,#762);
#760 = CARTESIAN_POINT('',(-4.167614365154E-14,47.8,41.707676786721));
#761 = DIRECTION('',(7.916654723501E-16,0.62932039105,-0.777145961457));
#762 = DIRECTION('',(6.319040619856E-16,-0.777145961457,-0.62932039105)
  );
#763 = ADVANCED_FACE('',(#764),#775,.T.);
#764 = FACE_BOUND('',#765,.T.);
#765 = EDGE_LOOP('',(#766,#767,#773,#774));
#766 = ORIENTED_EDGE('',*,*,#446,.F.);
#767 = ORIENTED_EDGE('',*,*,#768,.T.);
#768 = EDGE_CURVE('',#439,#303,#769,.T.);
#769 = LINE('',#770,#771);
#770 = CARTESIAN_POINT('',(100.,38.8,10.2));
#771 = VECTOR('',#772,1.);
#772 = DIRECTION('',(-1.,2.22044604925E-16,-1.110223024625E-16));
#773 = ORIENTED_EDGE('',*,*,#310,.T.);
#774 = ORIENTED_EDGE('',*,*,#751,.F.);
#775 = PLANE('',#776);
#776 = AXIS2_PLACEMENT_3D('',#777,#778,#779);
#777 = CARTESIAN_POINT('',(100.,38.8,10.2));
#778 = DIRECTION('',(-1.110223024625E-16,3.330669073875E-16,1.));
#779 = DIRECTION('',(-2.465190328816E-32,-1.,3.330669073875E-16));
#780 = ADVANCED_FACE('',(#781),#792,.T.);
#781 = FACE_BOUND('',#782,.T.);
#782 = EDGE_LOOP('',(#783,#784,#790,#791));
#783 = ORIENTED_EDGE('',*,*,#438,.F.);
#784 = ORIENTED_EDGE('',*,*,#785,.T.);
#785 = EDGE_CURVE('',#431,#295,#786,.T.);
#786 = LINE('',#787,#788);
#787 = CARTESIAN_POINT('',(100.,38.8,20.2));
#788 = VECTOR('',#789,1.);
#789 = DIRECTION('',(-1.,2.22044604925E-16,-1.110223024625E-16));
#790 = ORIENTED_EDGE('',*,*,#302,.T.);
#791 = ORIENTED_EDGE('',*,*,#768,.F.);
#792 = PLANE('',#793);
#793 = AXIS2_PLACEMENT_3D('',#794,#795,#796);
#794 = CARTESIAN_POINT('',(100.,38.8,20.2));
#795 = DIRECTION('',(-2.22044604925E-16,-1.,1.110223024625E-16));
#796 = DIRECTION('',(3.330669073875E-16,-1.110223024625E-16,-1.));
#797 = ADVANCED_FACE('',(#798,#809,#820),#831,.T.);
#798 = FACE_BOUND('',#799,.T.);
#799 = EDGE_LOOP('',(#800,#801,#807,#808));
#800 = ORIENTED_EDGE('',*,*,#430,.F.);
#801 = ORIENTED_EDGE('',*,*,#802,.F.);
#802 = EDGE_CURVE('',#287,#423,#803,.T.);
#803 = LINE('',#804,#805);
#804 = CARTESIAN_POINT('',(-2.018743071338E-14,57.8,20.2));
#805 = VECTOR('',#806,1.);
#806 = DIRECTION('',(1.,-8.840892098501E-16,1.689776975375E-16));
#807 = ORIENTED_EDGE('',*,*,#294,.T.);
#808 = ORIENTED_EDGE('',*,*,#785,.F.);
#809 = FACE_BOUND('',#810,.T.);
#810 = EDGE_LOOP('',(#811));
#811 = ORIENTED_EDGE('',*,*,#812,.T.);
#812 = EDGE_CURVE('',#813,#813,#815,.T.);
#813 = VERTEX_POINT('',#814);
#814 = CARTESIAN_POINT('',(30.,55.3,20.2));
#815 = CIRCLE('',#816,2.1);
#816 = AXIS2_PLACEMENT_3D('',#817,#818,#819);
#817 = CARTESIAN_POINT('',(30.,53.2,20.2));
#818 = DIRECTION('',(3.889776975375E-16,-1.365111512313E-15,-1.));
#819 = DIRECTION('',(-2.044604925031E-18,1.,-1.365111512313E-15));
#820 = FACE_BOUND('',#821,.T.);
#821 = EDGE_LOOP('',(#822));
#822 = ORIENTED_EDGE('',*,*,#823,.T.);
#823 = EDGE_CURVE('',#824,#824,#826,.T.);
#824 = VERTEX_POINT('',#825);
#825 = CARTESIAN_POINT('',(70.,55.3,20.2));
#826 = CIRCLE('',#827,2.1);
#827 = AXIS2_PLACEMENT_3D('',#828,#829,#830);
#828 = CARTESIAN_POINT('',(70.,53.2,20.2));
#829 = DIRECTION('',(3.889776975375E-16,-1.365111512313E-15,-1.));
#830 = DIRECTION('',(-2.044604925031E-18,1.,-1.365111512313E-15));
#831 = PLANE('',#832);
#832 = AXIS2_PLACEMENT_3D('',#833,#834,#835);
#833 = CARTESIAN_POINT('',(50.,48.3,20.2));
#834 = DIRECTION('',(-1.110223024625E-16,2.257215746277E-15,1.));
#835 = DIRECTION('',(2.382753376623E-31,1.,-2.257215746277E-15));
#836 = ADVANCED_FACE('',(#837),#843,.F.);
#837 = FACE_BOUND('',#838,.F.);
#838 = EDGE_LOOP('',(#839,#840,#841,#842));
#839 = ORIENTED_EDGE('',*,*,#626,.T.);
#840 = ORIENTED_EDGE('',*,*,#422,.T.);
#841 = ORIENTED_EDGE('',*,*,#802,.F.);
#842 = ORIENTED_EDGE('',*,*,#286,.F.);
#843 = PLANE('',#844);
#844 = AXIS2_PLACEMENT_3D('',#845,#846,#847);
#845 = CARTESIAN_POINT('',(-1.019631559026E-14,57.8,10.2));
#846 = DIRECTION('',(-2.17955395075E-16,-1.,7.751115123126E-16));
#847 = DIRECTION('',(-9.951115123126E-16,1.089776975375E-16,1.));
#848 = ADVANCED_FACE('',(#849),#874,.F.);
#849 = FACE_BOUND('',#850,.F.);
#850 = EDGE_LOOP('',(#851,#859,#867,#873));
#851 = ORIENTED_EDGE('',*,*,#852,.T.);
#852 = EDGE_CURVE('',#645,#853,#855,.T.);
#853 = VERTEX_POINT('',#854);
#854 = CARTESIAN_POINT('',(74.272391992003,53.2,13.2));
#855 = LINE('',#856,#857);
#856 = CARTESIAN_POINT('',(74.272391992003,53.2,10.2));
#857 = VECTOR('',#858,1.);
#858 = DIRECTION('',(-1.615111512313E-15,5.889776975375E-16,1.));
#859 = ORIENTED_EDGE('',*,*,#860,.T.);
#860 = EDGE_CURVE('',#853,#861,#863,.T.);
#861 = VERTEX_POINT('',#862);
#862 = CARTESIAN_POINT('',(72.136195996005,49.499999999996,13.2));
#863 = LINE('',#864,#865);
#864 = CARTESIAN_POINT('',(74.272391992003,53.2,13.2));
#865 = VECTOR('',#866,1.);
#866 = DIRECTION('',(-0.499999999999,-0.866025403785,9.022772266135E-16)
  );
#867 = ORIENTED_EDGE('',*,*,#868,.F.);
#868 = EDGE_CURVE('',#647,#861,#869,.T.);
#869 = LINE('',#870,#871);
#870 = CARTESIAN_POINT('',(72.136195996005,49.499999999996,10.2));
#871 = VECTOR('',#872,1.);
#872 = DIRECTION('',(-1.615111512313E-15,5.889776975375E-16,1.));
#873 = ORIENTED_EDGE('',*,*,#644,.F.);
#874 = PLANE('',#875);
#875 = AXIS2_PLACEMENT_3D('',#876,#877,#878);
#876 = CARTESIAN_POINT('',(74.272391992003,53.2,10.2));
#877 = DIRECTION('',(0.866025403785,-0.499999999999,1.451407621836E-15)
  );
#878 = DIRECTION('',(-0.499999999999,-0.866025403785,9.162518228274E-16)
  );
#879 = ADVANCED_FACE('',(#880),#898,.F.);
#880 = FACE_BOUND('',#881,.F.);
#881 = EDGE_LOOP('',(#882,#883,#891,#897));
#882 = ORIENTED_EDGE('',*,*,#868,.T.);
#883 = ORIENTED_EDGE('',*,*,#884,.T.);
#884 = EDGE_CURVE('',#861,#885,#887,.T.);
#885 = VERTEX_POINT('',#886);
#886 = CARTESIAN_POINT('',(67.863804003999,49.499999999999,13.2));
#887 = LINE('',#888,#889);
#888 = CARTESIAN_POINT('',(72.136195996005,49.499999999996,13.2));
#889 = VECTOR('',#890,1.);
#890 = DIRECTION('',(-1.,6.307640892099E-13,-8.889776975385E-16));
#891 = ORIENTED_EDGE('',*,*,#892,.F.);
#892 = EDGE_CURVE('',#679,#885,#893,.T.);
#893 = LINE('',#894,#895);
#894 = CARTESIAN_POINT('',(67.863804003999,49.499999999999,10.2));
#895 = VECTOR('',#896,1.);
#896 = DIRECTION('',(-1.615111512313E-15,5.889776975375E-16,1.));
#897 = ORIENTED_EDGE('',*,*,#686,.F.);
#898 = PLANE('',#899);
#899 = AXIS2_PLACEMENT_3D('',#900,#901,#902);
#900 = CARTESIAN_POINT('',(72.136195996005,49.499999999996,10.2));
#901 = DIRECTION('',(-6.305379553951E-13,-1.,1.255111512313E-15));
#902 = DIRECTION('',(-1.,6.312040892099E-13,-7.289776975378E-16));
#903 = ADVANCED_FACE('',(#904),#922,.F.);
#904 = FACE_BOUND('',#905,.F.);
#905 = EDGE_LOOP('',(#906,#907,#915,#921));
#906 = ORIENTED_EDGE('',*,*,#892,.T.);
#907 = ORIENTED_EDGE('',*,*,#908,.T.);
#908 = EDGE_CURVE('',#885,#909,#911,.T.);
#909 = VERTEX_POINT('',#910);
#910 = CARTESIAN_POINT('',(65.727608007996,53.199999999999,13.2));
#911 = LINE('',#912,#913);
#912 = CARTESIAN_POINT('',(67.863804003999,49.499999999999,13.2));
#913 = VECTOR('',#914,1.);
#914 = DIRECTION('',(-0.5,0.866025403784,-1.791254924149E-15));
#915 = ORIENTED_EDGE('',*,*,#916,.F.);
#916 = EDGE_CURVE('',#671,#909,#917,.T.);
#917 = LINE('',#918,#919);
#918 = CARTESIAN_POINT('',(65.727608007996,53.199999999999,10.2));
#919 = VECTOR('',#920,1.);
#920 = DIRECTION('',(-1.615111512313E-15,5.889776975375E-16,1.));
#921 = ORIENTED_EDGE('',*,*,#678,.F.);
#922 = PLANE('',#923);
#923 = AXIS2_PLACEMENT_3D('',#924,#925,#926);
#924 = CARTESIAN_POINT('',(67.863804003999,49.499999999999,10.2));
#925 = DIRECTION('',(-0.866025403784,-0.5,-1.962961095244E-16));
#926 = DIRECTION('',(-0.5,0.866025403784,-1.645229520365E-15));
#927 = ADVANCED_FACE('',(#928),#946,.F.);
#928 = FACE_BOUND('',#929,.F.);
#929 = EDGE_LOOP('',(#930,#931,#939,#945));
#930 = ORIENTED_EDGE('',*,*,#916,.T.);
#931 = ORIENTED_EDGE('',*,*,#932,.T.);
#932 = EDGE_CURVE('',#909,#933,#935,.T.);
#933 = VERTEX_POINT('',#934);
#934 = CARTESIAN_POINT('',(67.863804003997,56.9,13.2));
#935 = LINE('',#936,#937);
#936 = CARTESIAN_POINT('',(65.727608007996,53.199999999999,13.2));
#937 = VECTOR('',#938,1.);
#938 = DIRECTION('',(0.5,0.866025403785,-9.022772266121E-16));
#939 = ORIENTED_EDGE('',*,*,#940,.F.);
#940 = EDGE_CURVE('',#663,#933,#941,.T.);
#941 = LINE('',#942,#943);
#942 = CARTESIAN_POINT('',(67.863804003997,56.9,10.2));
#943 = VECTOR('',#944,1.);
#944 = DIRECTION('',(-1.615111512313E-15,5.889776975375E-16,1.));
#945 = ORIENTED_EDGE('',*,*,#670,.F.);
#946 = PLANE('',#947);
#947 = AXIS2_PLACEMENT_3D('',#948,#949,#950);
#948 = CARTESIAN_POINT('',(65.727608007996,53.199999999999,10.2));
#949 = DIRECTION('',(-0.866025403785,0.5,-1.451407621837E-15));
#950 = DIRECTION('',(0.5,0.866025403785,-9.162518228272E-16));
#951 = ADVANCED_FACE('',(#952),#970,.F.);
#952 = FACE_BOUND('',#953,.F.);
#953 = EDGE_LOOP('',(#954,#955,#963,#969));
#954 = ORIENTED_EDGE('',*,*,#940,.T.);
#955 = ORIENTED_EDGE('',*,*,#956,.T.);
#956 = EDGE_CURVE('',#933,#957,#959,.T.);
#957 = VERTEX_POINT('',#958);
#958 = CARTESIAN_POINT('',(72.136195996001,56.9,13.2));
#959 = LINE('',#960,#961);
#960 = CARTESIAN_POINT('',(67.863804003997,56.9,13.2));
#961 = VECTOR('',#962,1.);
#962 = DIRECTION('',(1.,8.271591079015E-14,8.889776975374E-16));
#963 = ORIENTED_EDGE('',*,*,#964,.F.);
#964 = EDGE_CURVE('',#655,#957,#965,.T.);
#965 = LINE('',#966,#967);
#966 = CARTESIAN_POINT('',(72.136195996001,56.9,10.2));
#967 = VECTOR('',#968,1.);
#968 = DIRECTION('',(-1.615111512313E-15,5.889776975375E-16,1.));
#969 = ORIENTED_EDGE('',*,*,#662,.F.);
#970 = PLANE('',#971);
#971 = AXIS2_PLACEMENT_3D('',#972,#973,#974);
#972 = CARTESIAN_POINT('',(67.863804003997,56.9,10.2));
#973 = DIRECTION('',(-8.293204460493E-14,1.,-1.255111512313E-15));
#974 = DIRECTION('',(1.,8.226591079015E-14,7.289776975374E-16));
#975 = ADVANCED_FACE('',(#976),#987,.F.);
#976 = FACE_BOUND('',#977,.F.);
#977 = EDGE_LOOP('',(#978,#979,#985,#986));
#978 = ORIENTED_EDGE('',*,*,#964,.T.);
#979 = ORIENTED_EDGE('',*,*,#980,.T.);
#980 = EDGE_CURVE('',#957,#853,#981,.T.);
#981 = LINE('',#982,#983);
#982 = CARTESIAN_POINT('',(72.136195996001,56.9,13.2));
#983 = VECTOR('',#984,1.);
#984 = DIRECTION('',(0.5,-0.866025403784,1.791254924149E-15));
#985 = ORIENTED_EDGE('',*,*,#852,.F.);
#986 = ORIENTED_EDGE('',*,*,#654,.F.);
#987 = PLANE('',#988);
#988 = AXIS2_PLACEMENT_3D('',#989,#990,#991);
#989 = CARTESIAN_POINT('',(72.136195996001,56.9,10.2));
#990 = DIRECTION('',(0.866025403784,0.5,1.962961095245E-16));
#991 = DIRECTION('',(0.5,-0.866025403784,1.645229520365E-15));
#992 = ADVANCED_FACE('',(#993),#1018,.F.);
#993 = FACE_BOUND('',#994,.F.);
#994 = EDGE_LOOP('',(#995,#1003,#1011,#1017));
#995 = ORIENTED_EDGE('',*,*,#996,.T.);
#996 = EDGE_CURVE('',#695,#997,#999,.T.);
#997 = VERTEX_POINT('',#998);
#998 = CARTESIAN_POINT('',(34.272391992003,53.2,13.2));
#999 = LINE('',#1000,#1001);
#1000 = CARTESIAN_POINT('',(34.272391992003,53.2,10.2));
#1001 = VECTOR('',#1002,1.);
#1002 = DIRECTION('',(-1.615111512313E-15,5.889776975375E-16,1.));
#1003 = ORIENTED_EDGE('',*,*,#1004,.T.);
#1004 = EDGE_CURVE('',#997,#1005,#1007,.T.);
#1005 = VERTEX_POINT('',#1006);
#1006 = CARTESIAN_POINT('',(32.136195996005,49.499999999996,13.2));
#1007 = LINE('',#1008,#1009);
#1008 = CARTESIAN_POINT('',(34.272391992003,53.2,13.2));
#1009 = VECTOR('',#1010,1.);
#1010 = DIRECTION('',(-0.499999999999,-0.866025403785,9.022772266135E-16
    ));
#1011 = ORIENTED_EDGE('',*,*,#1012,.F.);
#1012 = EDGE_CURVE('',#697,#1005,#1013,.T.);
#1013 = LINE('',#1014,#1015);
#1014 = CARTESIAN_POINT('',(32.136195996005,49.499999999996,10.2));
#1015 = VECTOR('',#1016,1.);
#1016 = DIRECTION('',(-1.615111512313E-15,5.889776975375E-16,1.));
#1017 = ORIENTED_EDGE('',*,*,#694,.F.);
#1018 = PLANE('',#1019);
#1019 = AXIS2_PLACEMENT_3D('',#1020,#1021,#1022);
#1020 = CARTESIAN_POINT('',(34.272391992003,53.2,10.2));
#1021 = DIRECTION('',(0.866025403785,-0.499999999999,1.451407621836E-15)
  );
#1022 = DIRECTION('',(-0.499999999999,-0.866025403785,9.162518228274E-16
    ));
#1023 = ADVANCED_FACE('',(#1024),#1042,.F.);
#1024 = FACE_BOUND('',#1025,.F.);
#1025 = EDGE_LOOP('',(#1026,#1027,#1035,#1041));
#1026 = ORIENTED_EDGE('',*,*,#1012,.T.);
#1027 = ORIENTED_EDGE('',*,*,#1028,.T.);
#1028 = EDGE_CURVE('',#1005,#1029,#1031,.T.);
#1029 = VERTEX_POINT('',#1030);
#1030 = CARTESIAN_POINT('',(27.863804003999,49.499999999999,13.2));
#1031 = LINE('',#1032,#1033);
#1032 = CARTESIAN_POINT('',(32.136195996005,49.499999999996,13.2));
#1033 = VECTOR('',#1034,1.);
#1034 = DIRECTION('',(-1.,6.307640892099E-13,-8.889776975385E-16));
#1035 = ORIENTED_EDGE('',*,*,#1036,.F.);
#1036 = EDGE_CURVE('',#729,#1029,#1037,.T.);
#1037 = LINE('',#1038,#1039);
#1038 = CARTESIAN_POINT('',(27.863804003999,49.499999999999,10.2));
#1039 = VECTOR('',#1040,1.);
#1040 = DIRECTION('',(-1.615111512313E-15,5.889776975375E-16,1.));
#1041 = ORIENTED_EDGE('',*,*,#736,.F.);
#1042 = PLANE('',#1043);
#1043 = AXIS2_PLACEMENT_3D('',#1044,#1045,#1046);
#1044 = CARTESIAN_POINT('',(32.136195996005,49.499999999996,10.2));
#1045 = DIRECTION('',(-6.305379553951E-13,-1.,1.255111512313E-15));
#1046 = DIRECTION('',(-1.,6.312040892099E-13,-7.289776975378E-16));
#1047 = ADVANCED_FACE('',(#1048),#1066,.F.);
#1048 = FACE_BOUND('',#1049,.F.);
#1049 = EDGE_LOOP('',(#1050,#1051,#1059,#1065));
#1050 = ORIENTED_EDGE('',*,*,#1036,.T.);
#1051 = ORIENTED_EDGE('',*,*,#1052,.T.);
#1052 = EDGE_CURVE('',#1029,#1053,#1055,.T.);
#1053 = VERTEX_POINT('',#1054);
#1054 = CARTESIAN_POINT('',(25.727608007996,53.199999999999,13.2));
#1055 = LINE('',#1056,#1057);
#1056 = CARTESIAN_POINT('',(27.863804003999,49.499999999999,13.2));
#1057 = VECTOR('',#1058,1.);
#1058 = DIRECTION('',(-0.5,0.866025403784,-1.791254924149E-15));
#1059 = ORIENTED_EDGE('',*,*,#1060,.F.);
#1060 = EDGE_CURVE('',#721,#1053,#1061,.T.);
#1061 = LINE('',#1062,#1063);
#1062 = CARTESIAN_POINT('',(25.727608007996,53.199999999999,10.2));
#1063 = VECTOR('',#1064,1.);
#1064 = DIRECTION('',(-1.615111512313E-15,5.889776975375E-16,1.));
#1065 = ORIENTED_EDGE('',*,*,#728,.F.);
#1066 = PLANE('',#1067);
#1067 = AXIS2_PLACEMENT_3D('',#1068,#1069,#1070);
#1068 = CARTESIAN_POINT('',(27.863804003999,49.499999999999,10.2));
#1069 = DIRECTION('',(-0.866025403784,-0.5,-1.962961095244E-16));
#1070 = DIRECTION('',(-0.5,0.866025403784,-1.645229520365E-15));
#1071 = ADVANCED_FACE('',(#1072),#1090,.F.);
#1072 = FACE_BOUND('',#1073,.F.);
#1073 = EDGE_LOOP('',(#1074,#1075,#1083,#1089));
#1074 = ORIENTED_EDGE('',*,*,#1060,.T.);
#1075 = ORIENTED_EDGE('',*,*,#1076,.T.);
#1076 = EDGE_CURVE('',#1053,#1077,#1079,.T.);
#1077 = VERTEX_POINT('',#1078);
#1078 = CARTESIAN_POINT('',(27.863804003997,56.9,13.2));
#1079 = LINE('',#1080,#1081);
#1080 = CARTESIAN_POINT('',(25.727608007996,53.199999999999,13.2));
#1081 = VECTOR('',#1082,1.);
#1082 = DIRECTION('',(0.5,0.866025403785,-9.022772266121E-16));
#1083 = ORIENTED_EDGE('',*,*,#1084,.F.);
#1084 = EDGE_CURVE('',#713,#1077,#1085,.T.);
#1085 = LINE('',#1086,#1087);
#1086 = CARTESIAN_POINT('',(27.863804003997,56.9,10.2));
#1087 = VECTOR('',#1088,1.);
#1088 = DIRECTION('',(-1.615111512313E-15,5.889776975375E-16,1.));
#1089 = ORIENTED_EDGE('',*,*,#720,.F.);
#1090 = PLANE('',#1091);
#1091 = AXIS2_PLACEMENT_3D('',#1092,#1093,#1094);
#1092 = CARTESIAN_POINT('',(25.727608007996,53.199999999999,10.2));
#1093 = DIRECTION('',(-0.866025403785,0.5,-1.451407621837E-15));
#1094 = DIRECTION('',(0.5,0.866025403785,-9.162518228272E-16));
#1095 = ADVANCED_FACE('',(#1096),#1114,.F.);
#1096 = FACE_BOUND('',#1097,.F.);
#1097 = EDGE_LOOP('',(#1098,#1099,#1107,#1113));
#1098 = ORIENTED_EDGE('',*,*,#1084,.T.);
#1099 = ORIENTED_EDGE('',*,*,#1100,.T.);
#1100 = EDGE_CURVE('',#1077,#1101,#1103,.T.);
#1101 = VERTEX_POINT('',#1102);
#1102 = CARTESIAN_POINT('',(32.136195996001,56.9,13.2));
#1103 = LINE('',#1104,#1105);
#1104 = CARTESIAN_POINT('',(27.863804003997,56.9,13.2));
#1105 = VECTOR('',#1106,1.);
#1106 = DIRECTION('',(1.,8.271591079015E-14,8.889776975374E-16));
#1107 = ORIENTED_EDGE('',*,*,#1108,.F.);
#1108 = EDGE_CURVE('',#705,#1101,#1109,.T.);
#1109 = LINE('',#1110,#1111);
#1110 = CARTESIAN_POINT('',(32.136195996001,56.9,10.2));
#1111 = VECTOR('',#1112,1.);
#1112 = DIRECTION('',(-1.615111512313E-15,5.889776975375E-16,1.));
#1113 = ORIENTED_EDGE('',*,*,#712,.F.);
#1114 = PLANE('',#1115);
#1115 = AXIS2_PLACEMENT_3D('',#1116,#1117,#1118);
#1116 = CARTESIAN_POINT('',(27.863804003997,56.9,10.2));
#1117 = DIRECTION('',(-8.293204460493E-14,1.,-1.255111512313E-15));
#1118 = DIRECTION('',(1.,8.226591079015E-14,7.289776975374E-16));
#1119 = ADVANCED_FACE('',(#1120),#1131,.F.);
#1120 = FACE_BOUND('',#1121,.F.);
#1121 = EDGE_LOOP('',(#1122,#1123,#1129,#1130));
#1122 = ORIENTED_EDGE('',*,*,#1108,.T.);
#1123 = ORIENTED_EDGE('',*,*,#1124,.T.);
#1124 = EDGE_CURVE('',#1101,#997,#1125,.T.);
#1125 = LINE('',#1126,#1127);
#1126 = CARTESIAN_POINT('',(32.136195996001,56.9,13.2));
#1127 = VECTOR('',#1128,1.);
#1128 = DIRECTION('',(0.5,-0.866025403784,1.791254924149E-15));
#1129 = ORIENTED_EDGE('',*,*,#996,.F.);
#1130 = ORIENTED_EDGE('',*,*,#704,.F.);
#1131 = PLANE('',#1132);
#1132 = AXIS2_PLACEMENT_3D('',#1133,#1134,#1135);
#1133 = CARTESIAN_POINT('',(32.136195996001,56.9,10.2));
#1134 = DIRECTION('',(0.866025403784,0.5,1.962961095245E-16));
#1135 = DIRECTION('',(0.5,-0.866025403784,1.645229520365E-15));
#1136 = ADVANCED_FACE('',(#1137),#1156,.F.);
#1137 = FACE_BOUND('',#1138,.F.);
#1138 = EDGE_LOOP('',(#1139,#1148,#1154,#1155));
#1139 = ORIENTED_EDGE('',*,*,#1140,.F.);
#1140 = EDGE_CURVE('',#1141,#1141,#1143,.T.);
#1141 = VERTEX_POINT('',#1142);
#1142 = CARTESIAN_POINT('',(30.,55.3,13.2));
#1143 = CIRCLE('',#1144,2.1);
#1144 = AXIS2_PLACEMENT_3D('',#1145,#1146,#1147);
#1145 = CARTESIAN_POINT('',(30.,53.2,13.2));
#1146 = DIRECTION('',(7.289776975375E-16,-1.475111512313E-15,-1.));
#1147 = DIRECTION('',(-2.044604925031E-18,1.,-1.475111512313E-15));
#1148 = ORIENTED_EDGE('',*,*,#1149,.T.);
#1149 = EDGE_CURVE('',#1141,#813,#1150,.T.);
#1150 = LINE('',#1151,#1152);
#1151 = CARTESIAN_POINT('',(30.,55.3,10.2));
#1152 = VECTOR('',#1153,1.);
#1153 = DIRECTION('',(-1.275111512313E-15,4.789776975375E-16,1.));
#1154 = ORIENTED_EDGE('',*,*,#812,.T.);
#1155 = ORIENTED_EDGE('',*,*,#1149,.F.);
#1156 = CYLINDRICAL_SURFACE('',#1157,2.1);
#1157 = AXIS2_PLACEMENT_3D('',#1158,#1159,#1160);
#1158 = CARTESIAN_POINT('',(30.,53.2,10.2));
#1159 = DIRECTION('',(1.055111512313E-15,-6.989776975375E-16,-1.));
#1160 = DIRECTION('',(-2.044604925031E-18,1.,-1.365111512313E-15));
#1161 = ADVANCED_FACE('',(#1162),#1181,.F.);
#1162 = FACE_BOUND('',#1163,.F.);
#1163 = EDGE_LOOP('',(#1164,#1173,#1179,#1180));
#1164 = ORIENTED_EDGE('',*,*,#1165,.F.);
#1165 = EDGE_CURVE('',#1166,#1166,#1168,.T.);
#1166 = VERTEX_POINT('',#1167);
#1167 = CARTESIAN_POINT('',(70.,55.3,13.2));
#1168 = CIRCLE('',#1169,2.1);
#1169 = AXIS2_PLACEMENT_3D('',#1170,#1171,#1172);
#1170 = CARTESIAN_POINT('',(70.,53.2,13.2));
#1171 = DIRECTION('',(7.289776975375E-16,-1.475111512313E-15,-1.));
#1172 = DIRECTION('',(-2.044604925031E-18,1.,-1.475111512313E-15));
#1173 = ORIENTED_EDGE('',*,*,#1174,.T.);
#1174 = EDGE_CURVE('',#1166,#824,#1175,.T.);
#1175 = LINE('',#1176,#1177);
#1176 = CARTESIAN_POINT('',(70.,55.3,10.2));
#1177 = VECTOR('',#1178,1.);
#1178 = DIRECTION('',(-1.275111512313E-15,4.789776975375E-16,1.));
#1179 = ORIENTED_EDGE('',*,*,#823,.T.);
#1180 = ORIENTED_EDGE('',*,*,#1174,.F.);
#1181 = CYLINDRICAL_SURFACE('',#1182,2.1);
#1182 = AXIS2_PLACEMENT_3D('',#1183,#1184,#1185);
#1183 = CARTESIAN_POINT('',(70.,53.2,10.2));
#1184 = DIRECTION('',(1.055111512313E-15,-6.989776975375E-16,-1.));
#1185 = DIRECTION('',(-2.044604925031E-18,1.,-1.365111512313E-15));
#1186 = ADVANCED_FACE('',(#1187,#1195),#1198,.F.);
#1187 = FACE_BOUND('',#1188,.F.);
#1188 = EDGE_LOOP('',(#1189,#1190,#1191,#1192,#1193,#1194));
#1189 = ORIENTED_EDGE('',*,*,#860,.F.);
#1190 = ORIENTED_EDGE('',*,*,#980,.F.);
#1191 = ORIENTED_EDGE('',*,*,#956,.F.);
#1192 = ORIENTED_EDGE('',*,*,#932,.F.);
#1193 = ORIENTED_EDGE('',*,*,#908,.F.);
#1194 = ORIENTED_EDGE('',*,*,#884,.F.);
#1195 = FACE_BOUND('',#1196,.F.);
#1196 = EDGE_LOOP('',(#1197));
#1197 = ORIENTED_EDGE('',*,*,#1165,.T.);
#1198 = PLANE('',#1199);
#1199 = AXIS2_PLACEMENT_3D('',#1200,#1201,#1202);
#1200 = CARTESIAN_POINT('',(50.,53.199999999999,13.2));
#1201 = DIRECTION('',(-1.365111512313E-15,6.089776975375E-16,1.));
#1202 = DIRECTION('',(1.,-4.440892098501E-16,6.989776975375E-16));
#1203 = ADVANCED_FACE('',(#1204,#1212),#1215,.F.);
#1204 = FACE_BOUND('',#1205,.F.);
#1205 = EDGE_LOOP('',(#1206,#1207,#1208,#1209,#1210,#1211));
#1206 = ORIENTED_EDGE('',*,*,#1004,.F.);
#1207 = ORIENTED_EDGE('',*,*,#1124,.F.);
#1208 = ORIENTED_EDGE('',*,*,#1100,.F.);
#1209 = ORIENTED_EDGE('',*,*,#1076,.F.);
#1210 = ORIENTED_EDGE('',*,*,#1052,.F.);
#1211 = ORIENTED_EDGE('',*,*,#1028,.F.);
#1212 = FACE_BOUND('',#1213,.F.);
#1213 = EDGE_LOOP('',(#1214));
#1214 = ORIENTED_EDGE('',*,*,#1140,.T.);
#1215 = PLANE('',#1216);
#1216 = AXIS2_PLACEMENT_3D('',#1217,#1218,#1219);
#1217 = CARTESIAN_POINT('',(50.,53.199999999999,13.2));
#1218 = DIRECTION('',(-1.365111512313E-15,6.089776975375E-16,1.));
#1219 = DIRECTION('',(1.,-4.440892098501E-16,6.989776975375E-16));
#1220 = ( GEOMETRIC_REPRESENTATION_CONTEXT(3) 
GLOBAL_UNCERTAINTY_ASSIGNED_CONTEXT((#1224)) 
GLOBAL_UNIT_ASSIGNED_CONTEXT((#1221,#1222,#1223)) REPRESENTATION_CONTEXT
('Context #1','3D Context with UNIT and UNCERTAINTY') );
#1221 = ( LENGTH_UNIT() NAMED_UNIT(*) SI_UNIT(.MILLI.,.METRE.) );
#1222 = ( NAMED_UNIT(*) PLANE_ANGLE_UNIT() SI_UNIT($,.RADIAN.) );
#1223 = ( NAMED_UNIT(*) SI_UNIT($,.STERADIAN.) SOLID_ANGLE_UNIT() );
#1224 = UNCERTAINTY_MEASURE_WITH_UNIT(LENGTH_MEASURE(1.E-05),#1221,
  'distance_accuracy_value','confusion accuracy');
#1225 = PRODUCT_RELATED_PRODUCT_CATEGORY('part',$,(#7));
#1226 = MECHANICAL_DESIGN_GEOMETRIC_PRESENTATION_REPRESENTATION('',(
    #1227),#1220);
#1227 = STYLED_ITEM('color',(#1228),#15);
#1228 = PRESENTATION_STYLE_ASSIGNMENT((#1229,#1235));
#1229 = SURFACE_STYLE_USAGE(.BOTH.,#1230);
#1230 = SURFACE_SIDE_STYLE('',(#1231));
#1231 = SURFACE_STYLE_FILL_AREA(#1232);
#1232 = FILL_AREA_STYLE('',(#1233));
#1233 = FILL_AREA_STYLE_COLOUR('',#1234);
#1234 = COLOUR_RGB('',0.384313730969,0.447058818107,0.643137266454);
#1235 = CURVE_STYLE('',#1236,POSITIVE_LENGTH_MEASURE(0.1),#1237);
#1236 = DRAUGHTING_PRE_DEFINED_CURVE_FONT('continuous');
#1237 = COLOUR_RGB('',9.803921802644E-02,9.803921802644E-02,
  9.803921802644E-02);
ENDSEC;
END-ISO-10303-21;
